<mxfile host="app.diagrams.net" agent="Mozilla/5.0 (X11; Linux x86_64) AppleWebKit/537.36 (KHTML, like Gecko) Chrome/131.0.0.0 Safari/537.36" version="26.0.4">
  <diagram name="Page-1" id="6lhcVRIQe2DY9xGinTSk">
    <mxGraphModel dx="1434" dy="1306" grid="1" gridSize="10" guides="1" tooltips="1" connect="1" arrows="1" fold="1" page="0" pageScale="1" pageWidth="1390" pageHeight="980" math="0" shadow="0">
      <root>
        <mxCell id="0" />
        <mxCell id="1" parent="0" />
        <mxCell id="knSOr63fwJM2YxoM46Qa-2" value="Admin" style="rounded=0;whiteSpace=wrap;html=1;fillColor=#a2d4e6;strokeColor=#63919f;" vertex="1" parent="1">
          <mxGeometry x="450" y="-230" width="100" height="60" as="geometry" />
        </mxCell>
        <mxCell id="knSOr63fwJM2YxoM46Qa-3" value="AdminID" style="ellipse;whiteSpace=wrap;html=1;fillColor=#f8cecc;strokeColor=#b85450;" vertex="1" parent="1">
          <mxGeometry x="340" y="-300" width="60" height="40" as="geometry" />
        </mxCell>
        <mxCell id="knSOr63fwJM2YxoM46Qa-4" edge="1" parent="1" source="knSOr63fwJM2YxoM46Qa-2" target="knSOr63fwJM2YxoM46Qa-3">
          <mxGeometry relative="1" as="geometry" />
        </mxCell>
        <mxCell id="knSOr63fwJM2YxoM46Qa-5" value="Username" style="ellipse;whiteSpace=wrap;html=1;fillColor=#f8cecc;strokeColor=#b85450;" vertex="1" parent="1">
          <mxGeometry x="380" y="-380" width="60" height="40" as="geometry" />
        </mxCell>
        <mxCell id="knSOr63fwJM2YxoM46Qa-6" edge="1" parent="1" source="knSOr63fwJM2YxoM46Qa-2" target="knSOr63fwJM2YxoM46Qa-5">
          <mxGeometry relative="1" as="geometry" />
        </mxCell>
        <mxCell id="knSOr63fwJM2YxoM46Qa-7" value="Email" style="ellipse;whiteSpace=wrap;html=1;fillColor=#f8cecc;strokeColor=#b85450;" vertex="1" parent="1">
          <mxGeometry x="490" y="-350" width="60" height="40" as="geometry" />
        </mxCell>
        <mxCell id="knSOr63fwJM2YxoM46Qa-8" edge="1" parent="1" source="knSOr63fwJM2YxoM46Qa-2" target="knSOr63fwJM2YxoM46Qa-7">
          <mxGeometry relative="1" as="geometry" />
        </mxCell>
        <mxCell id="knSOr63fwJM2YxoM46Qa-9" value="Password" style="ellipse;whiteSpace=wrap;html=1;fillColor=#f8cecc;strokeColor=#b85450;" vertex="1" parent="1">
          <mxGeometry x="570" y="-330" width="60" height="40" as="geometry" />
        </mxCell>
        <mxCell id="knSOr63fwJM2YxoM46Qa-10" edge="1" parent="1" source="knSOr63fwJM2YxoM46Qa-2" target="knSOr63fwJM2YxoM46Qa-9">
          <mxGeometry relative="1" as="geometry" />
        </mxCell>
        <mxCell id="knSOr63fwJM2YxoM46Qa-11" value="Manages" style="rhombus;whiteSpace=wrap;html=1;fillColor=#ffff88;strokeColor=#36393d;" vertex="1" parent="1">
          <mxGeometry x="650" y="-230" width="80" height="60" as="geometry" />
        </mxCell>
        <mxCell id="knSOr63fwJM2YxoM46Qa-12" value="Category" style="rounded=0;whiteSpace=wrap;html=1;fillColor=#a2d4e6;strokeColor=#63919f;" vertex="1" parent="1">
          <mxGeometry x="910" y="30" width="100" height="60" as="geometry" />
        </mxCell>
        <mxCell id="knSOr63fwJM2YxoM46Qa-13" value="CategoryID" style="ellipse;whiteSpace=wrap;html=1;fillColor=#f8cecc;strokeColor=#b85450;" vertex="1" parent="1">
          <mxGeometry x="870" y="120" width="60" height="40" as="geometry" />
        </mxCell>
        <mxCell id="knSOr63fwJM2YxoM46Qa-14" edge="1" parent="1" source="knSOr63fwJM2YxoM46Qa-12" target="knSOr63fwJM2YxoM46Qa-13">
          <mxGeometry relative="1" as="geometry" />
        </mxCell>
        <mxCell id="knSOr63fwJM2YxoM46Qa-15" value="CategoryName" style="ellipse;whiteSpace=wrap;html=1;fillColor=#f8cecc;strokeColor=#b85450;" vertex="1" parent="1">
          <mxGeometry x="930" y="170" width="90" height="50" as="geometry" />
        </mxCell>
        <mxCell id="knSOr63fwJM2YxoM46Qa-16" style="exitX=0.6;exitY=0.971;exitDx=0;exitDy=0;exitPerimeter=0;" edge="1" parent="1" source="knSOr63fwJM2YxoM46Qa-12" target="knSOr63fwJM2YxoM46Qa-15">
          <mxGeometry relative="1" as="geometry">
            <mxPoint x="1000" y="211" as="sourcePoint" />
          </mxGeometry>
        </mxCell>
        <mxCell id="knSOr63fwJM2YxoM46Qa-17" value="Book" style="rounded=0;whiteSpace=wrap;html=1;fillColor=#a2d4e6;strokeColor=#63919f;" vertex="1" parent="1">
          <mxGeometry x="845" y="-230" width="100" height="60" as="geometry" />
        </mxCell>
        <mxCell id="knSOr63fwJM2YxoM46Qa-18" value="BookID" style="ellipse;whiteSpace=wrap;html=1;fillColor=#f8cecc;strokeColor=#b85450;" vertex="1" parent="1">
          <mxGeometry x="670" y="-370" width="60" height="40" as="geometry" />
        </mxCell>
        <mxCell id="knSOr63fwJM2YxoM46Qa-19" edge="1" parent="1" source="knSOr63fwJM2YxoM46Qa-17" target="knSOr63fwJM2YxoM46Qa-18">
          <mxGeometry relative="1" as="geometry" />
        </mxCell>
        <mxCell id="knSOr63fwJM2YxoM46Qa-20" value="Title" style="ellipse;whiteSpace=wrap;html=1;fillColor=#f8cecc;strokeColor=#b85450;" vertex="1" parent="1">
          <mxGeometry x="970" y="-320" width="60" height="40" as="geometry" />
        </mxCell>
        <mxCell id="knSOr63fwJM2YxoM46Qa-21" edge="1" parent="1" source="knSOr63fwJM2YxoM46Qa-17" target="knSOr63fwJM2YxoM46Qa-20">
          <mxGeometry relative="1" as="geometry" />
        </mxCell>
        <mxCell id="knSOr63fwJM2YxoM46Qa-22" value="ISBN" style="ellipse;whiteSpace=wrap;html=1;fillColor=#f8cecc;strokeColor=#b85450;" vertex="1" parent="1">
          <mxGeometry x="830" y="-390" width="60" height="40" as="geometry" />
        </mxCell>
        <mxCell id="knSOr63fwJM2YxoM46Qa-23" edge="1" parent="1" source="knSOr63fwJM2YxoM46Qa-17" target="knSOr63fwJM2YxoM46Qa-22">
          <mxGeometry relative="1" as="geometry" />
        </mxCell>
        <mxCell id="knSOr63fwJM2YxoM46Qa-24" value="Price" style="ellipse;whiteSpace=wrap;html=1;fillColor=#f8cecc;strokeColor=#b85450;" vertex="1" parent="1">
          <mxGeometry x="740" y="-390" width="60" height="40" as="geometry" />
        </mxCell>
        <mxCell id="knSOr63fwJM2YxoM46Qa-25" edge="1" parent="1" source="knSOr63fwJM2YxoM46Qa-17" target="knSOr63fwJM2YxoM46Qa-24">
          <mxGeometry relative="1" as="geometry" />
        </mxCell>
        <mxCell id="knSOr63fwJM2YxoM46Qa-26" value="Author" style="ellipse;whiteSpace=wrap;html=1;fillColor=#f8cecc;strokeColor=#b85450;" vertex="1" parent="1">
          <mxGeometry x="920" y="-380" width="60" height="40" as="geometry" />
        </mxCell>
        <mxCell id="knSOr63fwJM2YxoM46Qa-27" edge="1" parent="1" source="knSOr63fwJM2YxoM46Qa-17" target="knSOr63fwJM2YxoM46Qa-26">
          <mxGeometry relative="1" as="geometry" />
        </mxCell>
        <mxCell id="knSOr63fwJM2YxoM46Qa-28" value="Payment" style="rounded=0;whiteSpace=wrap;html=1;fillColor=#a2d4e6;strokeColor=#63919f;" vertex="1" parent="1">
          <mxGeometry x="680" y="430" width="100" height="60" as="geometry" />
        </mxCell>
        <mxCell id="knSOr63fwJM2YxoM46Qa-29" value="PaymentID" style="ellipse;whiteSpace=wrap;html=1;fillColor=#f8cecc;strokeColor=#b85450;" vertex="1" parent="1">
          <mxGeometry x="560" y="520" width="60" height="40" as="geometry" />
        </mxCell>
        <mxCell id="knSOr63fwJM2YxoM46Qa-30" edge="1" parent="1" source="knSOr63fwJM2YxoM46Qa-28" target="knSOr63fwJM2YxoM46Qa-29">
          <mxGeometry relative="1" as="geometry" />
        </mxCell>
        <mxCell id="knSOr63fwJM2YxoM46Qa-31" value="Amount" style="ellipse;whiteSpace=wrap;html=1;fillColor=#f8cecc;strokeColor=#b85450;" vertex="1" parent="1">
          <mxGeometry x="860" y="490" width="60" height="40" as="geometry" />
        </mxCell>
        <mxCell id="knSOr63fwJM2YxoM46Qa-32" edge="1" parent="1" source="knSOr63fwJM2YxoM46Qa-28" target="knSOr63fwJM2YxoM46Qa-31">
          <mxGeometry relative="1" as="geometry" />
        </mxCell>
        <mxCell id="knSOr63fwJM2YxoM46Qa-33" value="PaymentDate" style="ellipse;whiteSpace=wrap;html=1;fillColor=#f8cecc;strokeColor=#b85450;" vertex="1" parent="1">
          <mxGeometry x="770" y="530" width="80" height="40" as="geometry" />
        </mxCell>
        <mxCell id="knSOr63fwJM2YxoM46Qa-34" edge="1" parent="1" source="knSOr63fwJM2YxoM46Qa-28" target="knSOr63fwJM2YxoM46Qa-33">
          <mxGeometry relative="1" as="geometry" />
        </mxCell>
        <mxCell id="knSOr63fwJM2YxoM46Qa-35" value="PaymentStatus" style="ellipse;whiteSpace=wrap;html=1;fillColor=#ffcccc;strokeColor=#36393d;" vertex="1" parent="1">
          <mxGeometry x="660" y="560" width="80" height="40" as="geometry" />
        </mxCell>
        <mxCell id="knSOr63fwJM2YxoM46Qa-36" edge="1" parent="1" source="knSOr63fwJM2YxoM46Qa-28" target="knSOr63fwJM2YxoM46Qa-35">
          <mxGeometry relative="1" as="geometry" />
        </mxCell>
        <mxCell id="knSOr63fwJM2YxoM46Qa-37" value="Cart" style="rounded=0;whiteSpace=wrap;html=1;fillColor=#a2d4e6;strokeColor=#63919f;" vertex="1" parent="1">
          <mxGeometry x="710" y="215" width="100" height="60" as="geometry" />
        </mxCell>
        <mxCell id="knSOr63fwJM2YxoM46Qa-38" value="CartID" style="ellipse;whiteSpace=wrap;html=1;fillColor=#f8cecc;strokeColor=#b85450;" vertex="1" parent="1">
          <mxGeometry x="810" y="150" width="60" height="40" as="geometry" />
        </mxCell>
        <mxCell id="knSOr63fwJM2YxoM46Qa-39" edge="1" parent="1" source="knSOr63fwJM2YxoM46Qa-37" target="knSOr63fwJM2YxoM46Qa-38">
          <mxGeometry relative="1" as="geometry" />
        </mxCell>
        <mxCell id="knSOr63fwJM2YxoM46Qa-40" value="Quantity" style="ellipse;whiteSpace=wrap;html=1;fillColor=#f8cecc;strokeColor=#b85450;" vertex="1" parent="1">
          <mxGeometry x="830" y="320" width="60" height="40" as="geometry" />
        </mxCell>
        <mxCell id="knSOr63fwJM2YxoM46Qa-41" edge="1" parent="1" source="knSOr63fwJM2YxoM46Qa-37" target="knSOr63fwJM2YxoM46Qa-40">
          <mxGeometry relative="1" as="geometry" />
        </mxCell>
        <mxCell id="knSOr63fwJM2YxoM46Qa-42" value="Sales" style="rounded=0;whiteSpace=wrap;html=1;fillColor=#a2d4e6;strokeColor=#63919f;" vertex="1" parent="1">
          <mxGeometry x="520" y="30" width="100" height="60" as="geometry" />
        </mxCell>
        <mxCell id="knSOr63fwJM2YxoM46Qa-43" value="SalesID" style="ellipse;whiteSpace=wrap;html=1;fillColor=#f8cecc;strokeColor=#b85450;" vertex="1" parent="1">
          <mxGeometry x="470" y="110" width="60" height="40" as="geometry" />
        </mxCell>
        <mxCell id="knSOr63fwJM2YxoM46Qa-44" edge="1" parent="1" source="knSOr63fwJM2YxoM46Qa-42" target="knSOr63fwJM2YxoM46Qa-43">
          <mxGeometry relative="1" as="geometry" />
        </mxCell>
        <mxCell id="knSOr63fwJM2YxoM46Qa-45" value="Quantity" style="ellipse;whiteSpace=wrap;html=1;fillColor=#f8cecc;strokeColor=#b85450;" vertex="1" parent="1">
          <mxGeometry x="610" y="110" width="60" height="40" as="geometry" />
        </mxCell>
        <mxCell id="knSOr63fwJM2YxoM46Qa-46" edge="1" parent="1" source="knSOr63fwJM2YxoM46Qa-42" target="knSOr63fwJM2YxoM46Qa-45">
          <mxGeometry relative="1" as="geometry" />
        </mxCell>
        <mxCell id="knSOr63fwJM2YxoM46Qa-47" value="CalcDate" style="ellipse;whiteSpace=wrap;html=1;fillColor=#f8cecc;strokeColor=#b85450;" vertex="1" parent="1">
          <mxGeometry x="540" y="120" width="60" height="40" as="geometry" />
        </mxCell>
        <mxCell id="knSOr63fwJM2YxoM46Qa-48" edge="1" parent="1" source="knSOr63fwJM2YxoM46Qa-42" target="knSOr63fwJM2YxoM46Qa-47">
          <mxGeometry relative="1" as="geometry" />
        </mxCell>
        <mxCell id="knSOr63fwJM2YxoM46Qa-49" value="Customer" style="rounded=0;whiteSpace=wrap;html=1;fillColor=#a2d4e6;strokeColor=#63919f;" vertex="1" parent="1">
          <mxGeometry x="320" y="220" width="100" height="60" as="geometry" />
        </mxCell>
        <mxCell id="knSOr63fwJM2YxoM46Qa-50" value="CustomerID" style="ellipse;whiteSpace=wrap;html=1;fillColor=#f8cecc;strokeColor=#b85450;" vertex="1" parent="1">
          <mxGeometry x="250" y="320" width="60" height="40" as="geometry" />
        </mxCell>
        <mxCell id="knSOr63fwJM2YxoM46Qa-51" edge="1" parent="1" source="knSOr63fwJM2YxoM46Qa-49" target="knSOr63fwJM2YxoM46Qa-50">
          <mxGeometry relative="1" as="geometry" />
        </mxCell>
        <mxCell id="knSOr63fwJM2YxoM46Qa-52" value="Name" style="ellipse;whiteSpace=wrap;html=1;fillColor=#f8cecc;strokeColor=#b85450;" vertex="1" parent="1">
          <mxGeometry x="220" y="210" width="60" height="40" as="geometry" />
        </mxCell>
        <mxCell id="knSOr63fwJM2YxoM46Qa-53" edge="1" parent="1" source="knSOr63fwJM2YxoM46Qa-49" target="knSOr63fwJM2YxoM46Qa-52">
          <mxGeometry relative="1" as="geometry" />
        </mxCell>
        <mxCell id="knSOr63fwJM2YxoM46Qa-54" value="Email" style="ellipse;whiteSpace=wrap;html=1;fillColor=#f8cecc;strokeColor=#b85450;" vertex="1" parent="1">
          <mxGeometry x="250" y="150" width="60" height="40" as="geometry" />
        </mxCell>
        <mxCell id="knSOr63fwJM2YxoM46Qa-55" edge="1" parent="1" source="knSOr63fwJM2YxoM46Qa-49" target="knSOr63fwJM2YxoM46Qa-54">
          <mxGeometry relative="1" as="geometry" />
        </mxCell>
        <mxCell id="knSOr63fwJM2YxoM46Qa-56" value="" style="endArrow=none;html=1;rounded=0;" edge="1" parent="1">
          <mxGeometry width="50" height="50" relative="1" as="geometry">
            <mxPoint x="900" y="-120" as="sourcePoint" />
            <mxPoint x="900" y="-171" as="targetPoint" />
          </mxGeometry>
        </mxCell>
        <mxCell id="knSOr63fwJM2YxoM46Qa-57" value="" style="rhombus;whiteSpace=wrap;html=1;fillColor=#ffff88;strokeColor=#36393d;" vertex="1" parent="1">
          <mxGeometry x="845" y="-120" width="110" height="70" as="geometry" />
        </mxCell>
        <mxCell id="knSOr63fwJM2YxoM46Qa-58" value="" style="endArrow=none;html=1;rounded=0;exitX=0.4;exitY=0;exitDx=0;exitDy=0;exitPerimeter=0;" edge="1" parent="1" source="knSOr63fwJM2YxoM46Qa-12">
          <mxGeometry width="50" height="50" relative="1" as="geometry">
            <mxPoint x="530" y="-20" as="sourcePoint" />
            <mxPoint x="900" y="-50" as="targetPoint" />
            <Array as="points">
              <mxPoint x="950" y="-50" />
            </Array>
          </mxGeometry>
        </mxCell>
        <mxCell id="knSOr63fwJM2YxoM46Qa-59" value="Belongs to" style="text;html=1;align=center;verticalAlign=middle;whiteSpace=wrap;rounded=0;fillColor=none;strokeColor=none;glass=0;gradientColor=none;" vertex="1" parent="1">
          <mxGeometry x="870" y="-100" width="60" height="30" as="geometry" />
        </mxCell>
        <mxCell id="knSOr63fwJM2YxoM46Qa-60" value="" style="rhombus;whiteSpace=wrap;html=1;fillColor=#ffff88;strokeColor=#36393d;" vertex="1" parent="1">
          <mxGeometry x="510" y="210" width="100" height="70" as="geometry" />
        </mxCell>
        <mxCell id="knSOr63fwJM2YxoM46Qa-61" value="Owns" style="text;html=1;align=center;verticalAlign=middle;whiteSpace=wrap;rounded=0;" vertex="1" parent="1">
          <mxGeometry x="530" y="230" width="60" height="30" as="geometry" />
        </mxCell>
        <mxCell id="knSOr63fwJM2YxoM46Qa-62" value="" style="endArrow=none;html=1;rounded=0;entryX=0;entryY=0.5;entryDx=0;entryDy=0;exitX=1;exitY=0.5;exitDx=0;exitDy=0;" edge="1" parent="1" source="knSOr63fwJM2YxoM46Qa-11" target="knSOr63fwJM2YxoM46Qa-17">
          <mxGeometry width="50" height="50" relative="1" as="geometry">
            <mxPoint x="390" y="-160" as="sourcePoint" />
            <mxPoint x="440" y="-210" as="targetPoint" />
          </mxGeometry>
        </mxCell>
        <mxCell id="knSOr63fwJM2YxoM46Qa-63" value="" style="endArrow=none;html=1;rounded=0;entryX=1;entryY=0.5;entryDx=0;entryDy=0;exitX=0;exitY=0.5;exitDx=0;exitDy=0;" edge="1" parent="1" source="knSOr63fwJM2YxoM46Qa-11" target="knSOr63fwJM2YxoM46Qa-2">
          <mxGeometry width="50" height="50" relative="1" as="geometry">
            <mxPoint x="480" y="-200" as="sourcePoint" />
            <mxPoint x="430" y="-250" as="targetPoint" />
            <Array as="points">
              <mxPoint x="590" y="-200" />
            </Array>
          </mxGeometry>
        </mxCell>
        <mxCell id="knSOr63fwJM2YxoM46Qa-64" value="" style="endArrow=none;html=1;rounded=0;exitX=1;exitY=0.5;exitDx=0;exitDy=0;" edge="1" parent="1" source="knSOr63fwJM2YxoM46Qa-60">
          <mxGeometry width="50" height="50" relative="1" as="geometry">
            <mxPoint x="460" y="780" as="sourcePoint" />
            <mxPoint x="710" y="245" as="targetPoint" />
            <Array as="points">
              <mxPoint x="670" y="245" />
            </Array>
          </mxGeometry>
        </mxCell>
        <mxCell id="knSOr63fwJM2YxoM46Qa-65" value="" style="endArrow=none;html=1;rounded=0;entryX=0;entryY=0.5;entryDx=0;entryDy=0;" edge="1" parent="1" target="knSOr63fwJM2YxoM46Qa-60">
          <mxGeometry width="50" height="50" relative="1" as="geometry">
            <mxPoint x="420" y="245" as="sourcePoint" />
            <mxPoint x="510" y="110" as="targetPoint" />
          </mxGeometry>
        </mxCell>
        <mxCell id="knSOr63fwJM2YxoM46Qa-66" value="" style="rhombus;whiteSpace=wrap;html=1;fillColor=#ffff88;strokeColor=#36393d;" vertex="1" parent="1">
          <mxGeometry x="700" y="330" width="100" height="60" as="geometry" />
        </mxCell>
        <mxCell id="knSOr63fwJM2YxoM46Qa-67" value="" style="endArrow=none;html=1;rounded=0;entryX=0.5;entryY=0;entryDx=0;entryDy=0;" edge="1" parent="1" target="knSOr63fwJM2YxoM46Qa-66">
          <mxGeometry width="50" height="50" relative="1" as="geometry">
            <mxPoint x="749.81" y="275" as="sourcePoint" />
            <mxPoint x="749.81" y="325" as="targetPoint" />
            <Array as="points">
              <mxPoint x="749.81" y="295" />
            </Array>
          </mxGeometry>
        </mxCell>
        <mxCell id="knSOr63fwJM2YxoM46Qa-68" value="" style="endArrow=none;html=1;rounded=0;exitX=0.696;exitY=0.011;exitDx=0;exitDy=0;entryX=0.5;entryY=1;entryDx=0;entryDy=0;exitPerimeter=0;" edge="1" parent="1" source="knSOr63fwJM2YxoM46Qa-28" target="knSOr63fwJM2YxoM46Qa-66">
          <mxGeometry width="50" height="50" relative="1" as="geometry">
            <mxPoint x="460" y="280" as="sourcePoint" />
            <mxPoint x="510" y="230" as="targetPoint" />
            <Array as="points">
              <mxPoint x="750" y="400" />
            </Array>
          </mxGeometry>
        </mxCell>
        <mxCell id="knSOr63fwJM2YxoM46Qa-69" value="Paid by" style="text;html=1;align=center;verticalAlign=middle;whiteSpace=wrap;rounded=0;" vertex="1" parent="1">
          <mxGeometry x="720" y="345" width="60" height="30" as="geometry" />
        </mxCell>
        <mxCell id="knSOr63fwJM2YxoM46Qa-70" value="" style="rhombus;whiteSpace=wrap;html=1;fillColor=#ffff88;strokeColor=#36393d;" vertex="1" parent="1">
          <mxGeometry x="385" y="-100" width="90" height="70" as="geometry" />
        </mxCell>
        <mxCell id="knSOr63fwJM2YxoM46Qa-71" value="Oversees" style="text;html=1;align=center;verticalAlign=middle;whiteSpace=wrap;rounded=0;" vertex="1" parent="1">
          <mxGeometry x="400" y="-80" width="60" height="30" as="geometry" />
        </mxCell>
        <mxCell id="knSOr63fwJM2YxoM46Qa-72" value="" style="endArrow=none;html=1;rounded=0;entryX=0;entryY=0.5;entryDx=0;entryDy=0;exitX=0.5;exitY=0;exitDx=0;exitDy=0;" edge="1" parent="1" source="knSOr63fwJM2YxoM46Qa-70" target="knSOr63fwJM2YxoM46Qa-2">
          <mxGeometry width="50" height="50" relative="1" as="geometry">
            <mxPoint x="540" y="50" as="sourcePoint" />
            <mxPoint x="590" as="targetPoint" />
            <Array as="points">
              <mxPoint x="430" y="-200" />
            </Array>
          </mxGeometry>
        </mxCell>
        <mxCell id="knSOr63fwJM2YxoM46Qa-73" value="" style="endArrow=none;html=1;rounded=0;entryX=1;entryY=0.5;entryDx=0;entryDy=0;exitX=0.4;exitY=0;exitDx=0;exitDy=0;exitPerimeter=0;" edge="1" parent="1" source="knSOr63fwJM2YxoM46Qa-42" target="knSOr63fwJM2YxoM46Qa-70">
          <mxGeometry width="50" height="50" relative="1" as="geometry">
            <mxPoint x="560" y="40" as="sourcePoint" />
            <mxPoint x="570" y="-10" as="targetPoint" />
            <Array as="points">
              <mxPoint x="560" y="-65" />
            </Array>
          </mxGeometry>
        </mxCell>
        <mxCell id="knSOr63fwJM2YxoM46Qa-74" value="" style="rhombus;whiteSpace=wrap;html=1;fillColor=#ffff88;strokeColor=#36393d;" vertex="1" parent="1">
          <mxGeometry x="710" y="70" width="90" height="60" as="geometry" />
        </mxCell>
        <mxCell id="knSOr63fwJM2YxoM46Qa-75" value="" style="endArrow=none;html=1;rounded=0;exitX=1;exitY=0.5;exitDx=0;exitDy=0;entryX=0;entryY=0.5;entryDx=0;entryDy=0;" edge="1" parent="1" source="knSOr63fwJM2YxoM46Qa-42" target="knSOr63fwJM2YxoM46Qa-74">
          <mxGeometry width="50" height="50" relative="1" as="geometry">
            <mxPoint x="690" y="200" as="sourcePoint" />
            <mxPoint x="740" y="150" as="targetPoint" />
            <Array as="points">
              <mxPoint x="680" y="60" />
            </Array>
          </mxGeometry>
        </mxCell>
        <mxCell id="knSOr63fwJM2YxoM46Qa-76" value="" style="endArrow=none;html=1;rounded=0;entryX=0.5;entryY=1;entryDx=0;entryDy=0;exitX=0.443;exitY=0.014;exitDx=0;exitDy=0;exitPerimeter=0;" edge="1" parent="1" source="knSOr63fwJM2YxoM46Qa-37" target="knSOr63fwJM2YxoM46Qa-74">
          <mxGeometry width="50" height="50" relative="1" as="geometry">
            <mxPoint x="755" y="220" as="sourcePoint" />
            <mxPoint x="740" y="150" as="targetPoint" />
          </mxGeometry>
        </mxCell>
        <mxCell id="knSOr63fwJM2YxoM46Qa-77" value="Includes" style="text;html=1;align=center;verticalAlign=middle;whiteSpace=wrap;rounded=0;" vertex="1" parent="1">
          <mxGeometry x="725" y="85" width="60" height="30" as="geometry" />
        </mxCell>
        <mxCell id="knSOr63fwJM2YxoM46Qa-78" value="" style="rhombus;whiteSpace=wrap;html=1;fillColor=#ffff88;strokeColor=#36393d;" vertex="1" parent="1">
          <mxGeometry x="320" y="40" width="100" height="60" as="geometry" />
        </mxCell>
        <mxCell id="knSOr63fwJM2YxoM46Qa-79" value="" style="endArrow=none;html=1;rounded=0;exitX=1;exitY=0.5;exitDx=0;exitDy=0;" edge="1" parent="1" source="knSOr63fwJM2YxoM46Qa-78">
          <mxGeometry width="50" height="50" relative="1" as="geometry">
            <mxPoint x="730" y="120" as="sourcePoint" />
            <mxPoint x="520" y="70" as="targetPoint" />
          </mxGeometry>
        </mxCell>
        <mxCell id="knSOr63fwJM2YxoM46Qa-80" value="" style="endArrow=none;html=1;rounded=0;exitX=0.5;exitY=0;exitDx=0;exitDy=0;entryX=0.5;entryY=1;entryDx=0;entryDy=0;" edge="1" parent="1" source="knSOr63fwJM2YxoM46Qa-49" target="knSOr63fwJM2YxoM46Qa-78">
          <mxGeometry width="50" height="50" relative="1" as="geometry">
            <mxPoint x="730" y="120" as="sourcePoint" />
            <mxPoint x="780" y="70" as="targetPoint" />
          </mxGeometry>
        </mxCell>
        <mxCell id="knSOr63fwJM2YxoM46Qa-81" value="Made By" style="text;html=1;align=center;verticalAlign=middle;whiteSpace=wrap;rounded=0;" vertex="1" parent="1">
          <mxGeometry x="340" y="55" width="60" height="30" as="geometry" />
        </mxCell>
        <mxCell id="knSOr63fwJM2YxoM46Qa-82" value="" style="rhombus;whiteSpace=wrap;html=1;fillColor=#ffff88;strokeColor=#36393d;" vertex="1" parent="1">
          <mxGeometry x="450" y="430" width="100" height="60" as="geometry" />
        </mxCell>
        <mxCell id="knSOr63fwJM2YxoM46Qa-83" value="Makes" style="text;html=1;align=center;verticalAlign=middle;whiteSpace=wrap;rounded=0;" vertex="1" parent="1">
          <mxGeometry x="470" y="445" width="60" height="30" as="geometry" />
        </mxCell>
        <mxCell id="knSOr63fwJM2YxoM46Qa-84" value="" style="endArrow=none;html=1;rounded=0;entryX=0;entryY=0.5;entryDx=0;entryDy=0;exitX=1;exitY=0.5;exitDx=0;exitDy=0;" edge="1" parent="1" source="knSOr63fwJM2YxoM46Qa-82" target="knSOr63fwJM2YxoM46Qa-28">
          <mxGeometry width="50" height="50" relative="1" as="geometry">
            <mxPoint x="610" y="420" as="sourcePoint" />
            <mxPoint x="660" y="370" as="targetPoint" />
          </mxGeometry>
        </mxCell>
        <mxCell id="knSOr63fwJM2YxoM46Qa-85" value="" style="endArrow=none;html=1;rounded=0;exitX=0.5;exitY=1;exitDx=0;exitDy=0;entryX=0;entryY=0.5;entryDx=0;entryDy=0;" edge="1" parent="1" source="knSOr63fwJM2YxoM46Qa-49" target="knSOr63fwJM2YxoM46Qa-82">
          <mxGeometry width="50" height="50" relative="1" as="geometry">
            <mxPoint x="610" y="420" as="sourcePoint" />
            <mxPoint x="660" y="370" as="targetPoint" />
            <Array as="points">
              <mxPoint x="370" y="460" />
            </Array>
          </mxGeometry>
        </mxCell>
        <mxCell id="knSOr63fwJM2YxoM46Qa-86" value="" style="rhombus;whiteSpace=wrap;html=1;fillColor=#ffff88;strokeColor=#36393d;" vertex="1" parent="1">
          <mxGeometry x="655" y="-75" width="90" height="60" as="geometry" />
        </mxCell>
        <mxCell id="knSOr63fwJM2YxoM46Qa-87" value="" style="endArrow=none;html=1;rounded=0;entryX=1;entryY=0.5;entryDx=0;entryDy=0;exitX=0;exitY=0.5;exitDx=0;exitDy=0;" edge="1" parent="1" source="knSOr63fwJM2YxoM46Qa-12" target="knSOr63fwJM2YxoM46Qa-86">
          <mxGeometry width="50" height="50" relative="1" as="geometry">
            <mxPoint x="760" y="140" as="sourcePoint" />
            <mxPoint x="810" y="90" as="targetPoint" />
            <Array as="points">
              <mxPoint x="810" y="60" />
              <mxPoint x="810" y="-45" />
            </Array>
          </mxGeometry>
        </mxCell>
        <mxCell id="knSOr63fwJM2YxoM46Qa-88" value="" style="endArrow=none;html=1;rounded=0;exitX=0.5;exitY=1;exitDx=0;exitDy=0;entryX=0.5;entryY=0;entryDx=0;entryDy=0;" edge="1" parent="1" source="knSOr63fwJM2YxoM46Qa-2" target="knSOr63fwJM2YxoM46Qa-86">
          <mxGeometry width="50" height="50" relative="1" as="geometry">
            <mxPoint x="750" y="190" as="sourcePoint" />
            <mxPoint x="700" y="-120" as="targetPoint" />
            <Array as="points">
              <mxPoint x="500" y="-120" />
              <mxPoint x="700" y="-120" />
            </Array>
          </mxGeometry>
        </mxCell>
        <mxCell id="knSOr63fwJM2YxoM46Qa-89" value="Maintains" style="text;html=1;align=center;verticalAlign=middle;whiteSpace=wrap;rounded=0;" vertex="1" parent="1">
          <mxGeometry x="670" y="-60" width="60" height="30" as="geometry" />
        </mxCell>
        <mxCell id="knSOr63fwJM2YxoM46Qa-90" style="edgeStyle=orthogonalEdgeStyle;rounded=0;orthogonalLoop=1;jettySize=auto;html=1;exitX=0.5;exitY=1;exitDx=0;exitDy=0;entryX=0.333;entryY=1.108;entryDx=0;entryDy=0;entryPerimeter=0;" edge="1" parent="1" source="knSOr63fwJM2YxoM46Qa-40" target="knSOr63fwJM2YxoM46Qa-40">
          <mxGeometry relative="1" as="geometry" />
        </mxCell>
        <mxCell id="knSOr63fwJM2YxoM46Qa-91" value="" style="rhombus;whiteSpace=wrap;html=1;fillColor=#ffff88;strokeColor=#36393d;" vertex="1" parent="1">
          <mxGeometry x="1050" y="70" width="90" height="60" as="geometry" />
        </mxCell>
        <mxCell id="knSOr63fwJM2YxoM46Qa-92" value="" style="endArrow=none;html=1;rounded=0;entryX=0.5;entryY=1;entryDx=0;entryDy=0;exitX=1;exitY=0.5;exitDx=0;exitDy=0;" edge="1" parent="1" source="knSOr63fwJM2YxoM46Qa-37" target="knSOr63fwJM2YxoM46Qa-91">
          <mxGeometry width="50" height="50" relative="1" as="geometry">
            <mxPoint x="990" y="190" as="sourcePoint" />
            <mxPoint x="1040" y="140" as="targetPoint" />
            <Array as="points">
              <mxPoint x="1095" y="245" />
            </Array>
          </mxGeometry>
        </mxCell>
        <mxCell id="knSOr63fwJM2YxoM46Qa-93" value="" style="endArrow=none;html=1;rounded=0;exitX=1;exitY=0.5;exitDx=0;exitDy=0;entryX=0.5;entryY=0;entryDx=0;entryDy=0;" edge="1" parent="1" source="knSOr63fwJM2YxoM46Qa-17" target="knSOr63fwJM2YxoM46Qa-91">
          <mxGeometry width="50" height="50" relative="1" as="geometry">
            <mxPoint x="980" y="170" as="sourcePoint" />
            <mxPoint x="1030" y="120" as="targetPoint" />
            <Array as="points">
              <mxPoint x="1095" y="-200" />
            </Array>
          </mxGeometry>
        </mxCell>
        <mxCell id="knSOr63fwJM2YxoM46Qa-94" value="Added to" style="text;html=1;align=center;verticalAlign=middle;whiteSpace=wrap;rounded=0;" vertex="1" parent="1">
          <mxGeometry x="1065" y="85" width="60" height="30" as="geometry" />
        </mxCell>
      </root>
    </mxGraphModel>
  </diagram>
</mxfile>
